<svg xmlns="http://www.w3.org/2000/svg" version="1.1" xmlns:xlink="http://www.w3.org/1999/xlink" xmlns:svgjs="http://svgjs.dev/svgjs" width="1500" height="1500" viewBox="0 0 1500 1500"><rect width="1500" height="1500" fill="#000000"></rect><g transform="matrix(0.6666666666666666,0,0,0.6666666666666666,249.39393939393938,655.8120998903491)"><svg viewBox="0 0 396 74" data-background-color="#ffffff" preserveAspectRatio="xMidYMid meet" height="280" width="1500" xmlns="http://www.w3.org/2000/svg" xmlns:xlink="http://www.w3.org/1999/xlink"><g id="tight-bounds" transform="matrix(1,0,0,1,0.2400000000000091,0.33877468632587693)"><svg viewBox="0 0 395.52 73.32245062734826" height="73.32245062734826" width="395.52"><g><svg viewBox="0 0 515.0347675669466 95.47838621636132" height="73.32245062734826" width="395.52"><g><rect width="4.620901135239301" height="95.47838621636132" x="102.79726660123787" y="0" fill="#ffffff" opacity="1" stroke-width="0" stroke="transparent" fill-opacity="1" class="rect-yte-0" data-fill-palette-color="primary" rx="1%" id="yte-0" data-palette-color="#111111"></rect></g><g transform="matrix(1,0,0,1,119.51476756694653,0.2375084234237761)"><svg viewBox="0 0 395.52 95.00336936951376" height="95.00336936951376" width="395.52"><g id="textblocktransform"><svg viewBox="0 0 395.52 95.00336936951376" height="95.00336936951376" width="395.52" id="textblock"><g><svg viewBox="0 0 395.52 51.24027783624499" height="51.24027783624499" width="395.52"><g transform="matrix(1,0,0,1,0,0)"><svg width="395.52" viewBox="2.98 -29.52 231.96 30.06" height="51.24027783624499" data-palette-color="#111111"><path d="M25.46-28.98Q26.29-28.98 26.65-28.6 27-28.22 27-27.32L27-27.32 27-18.12Q27-17.26 26.59-16.89 26.17-16.53 25.17-16.53L25.17-16.53Q24.17-16.53 23.75-16.89 23.34-17.26 23.34-18.12L23.34-18.12 23.34-25.66 16.82-25.66 16.82-3.32 22.58-3.32Q23.41-3.32 23.77-2.94 24.12-2.56 24.12-1.66L24.12-1.66Q24.12-0.76 23.77-0.38 23.41 0 22.58 0L22.58 0 7.4 0Q6.57 0 6.21-0.38 5.86-0.76 5.86-1.66L5.86-1.66Q5.86-2.56 6.21-2.94 6.57-3.32 7.4-3.32L7.4-3.32 13.16-3.32 13.16-25.66 6.64-25.66 6.64-18.12Q6.64-17.26 6.23-16.89 5.81-16.53 4.81-16.53L4.81-16.53Q3.81-16.53 3.39-16.89 2.98-17.26 2.98-18.12L2.98-18.12 2.98-27.32Q2.98-28.22 3.33-28.6 3.69-28.98 4.52-28.98L4.52-28.98 25.46-28.98ZM45.6-28.98Q46.58-28.98 47.18-28.6 47.78-28.22 48.07-27.39L48.07-27.39 56.69-3.32 58.18-3.32Q59.01-3.32 59.36-2.94 59.71-2.56 59.71-1.66L59.71-1.66Q59.71-0.76 59.36-0.38 59.01 0 58.18 0L58.18 0 49.53 0Q48.7 0 48.35-0.38 48-0.76 48-1.66L48-1.66Q48-2.56 48.35-2.94 48.7-3.32 49.53-3.32L49.53-3.32 52.83-3.32 50.83-9.13 38.99-9.13 36.96-3.32 39.91-3.32Q40.74-3.32 41.1-2.94 41.45-2.56 41.45-1.66L41.45-1.66Q41.45-0.76 41.1-0.38 40.74 0 39.91 0L39.91 0 31.76 0Q30.93 0 30.58-0.38 30.22-0.76 30.22-1.66L30.22-1.66Q30.22-2.56 30.58-2.94 30.93-3.32 31.76-3.32L31.76-3.32 33.13-3.32 41.21-25.66 36.64-25.66Q35.81-25.66 35.46-26.04 35.1-26.42 35.1-27.32L35.1-27.32Q35.1-28.22 35.46-28.6 35.81-28.98 36.64-28.98L36.64-28.98 45.6-28.98ZM45.16-25.66L44.7-25.66 40.13-12.45 49.7-12.45 45.16-25.66ZM76.97-28.98Q77.8-28.98 78.16-28.6 78.51-28.22 78.51-27.32L78.51-27.32Q78.51-26.42 78.16-26.04 77.8-25.66 76.97-25.66L76.97-25.66 71.06-25.66 71.06-3.32 83.15-3.32 83.15-11.35Q83.15-12.21 83.56-12.57 83.98-12.94 84.98-12.94L84.98-12.94Q85.98-12.94 86.4-12.57 86.81-12.21 86.81-11.35L86.81-11.35 86.81-1.66Q86.81-0.76 86.46-0.38 86.1 0 85.27 0L85.27 0 63.45 0Q62.62 0 62.26-0.38 61.91-0.76 61.91-1.66L61.91-1.66Q61.91-2.56 62.26-2.94 62.62-3.32 63.45-3.32L63.45-3.32 67.4-3.32 67.4-25.66 63.45-25.66Q62.62-25.66 62.26-26.04 61.91-26.42 61.91-27.32L61.91-27.32Q61.91-28.22 62.26-28.6 62.62-28.98 63.45-28.98L63.45-28.98 76.97-28.98ZM113.01-28.98Q113.84-28.98 114.19-28.6 114.54-28.22 114.54-27.32L114.54-27.32Q114.54-26.42 114.19-26.04 113.84-25.66 113.01-25.66L113.01-25.66 106.76-25.66 106.76-3.32 113.49-3.32Q114.32-3.32 114.68-2.94 115.03-2.56 115.03-1.66L115.03-1.66Q115.03-0.76 114.68-0.38 114.32 0 113.49 0L113.49 0 96.35 0Q95.52 0 95.17-0.38 94.82-0.76 94.82-1.66L94.82-1.66Q94.82-2.56 95.17-2.94 95.52-3.32 96.35-3.32L96.35-3.32 103.09-3.32 103.09-25.66 96.84-25.66Q96.01-25.66 95.66-26.04 95.31-26.42 95.31-27.32L95.31-27.32Q95.31-28.22 95.66-28.6 96.01-28.98 96.84-28.98L96.84-28.98 113.01-28.98ZM146.65-28.98Q147.48-28.98 147.83-28.6 148.18-28.22 148.18-27.32L148.18-27.32Q148.18-26.42 147.83-26.04 147.48-25.66 146.65-25.66L146.65-25.66 145.25-25.66 145.25-0.9Q145.25-0.24 144.8 0.15 144.35 0.54 143.42 0.54L143.42 0.54Q142.13 0.54 141.37-0.81L141.37-0.81 128.7-23.44 128.6-23.44 128.6-3.32 132.05-3.32Q132.88-3.32 133.23-2.94 133.58-2.56 133.58-1.66L133.58-1.66Q133.58-0.76 133.23-0.38 132.88 0 132.05 0L132.05 0 123.4 0Q122.57 0 122.22-0.38 121.87-0.76 121.87-1.66L121.87-1.66Q121.87-2.56 122.22-2.94 122.57-3.32 123.4-3.32L123.4-3.32 125.04-3.32 125.04-25.66 123.16-25.66Q122.33-25.66 121.97-26.04 121.62-26.42 121.62-27.32L121.62-27.32Q121.62-28.22 121.97-28.6 122.33-28.98 123.16-28.98L123.16-28.98 128.63-28.98Q129.16-28.98 129.49-28.81 129.82-28.64 130.02-28.3L130.02-28.3 141.59-7.59 141.69-7.59 141.69-25.66 138.74-25.66Q137.91-25.66 137.55-26.04 137.2-26.42 137.2-27.32L137.2-27.32Q137.2-28.22 137.55-28.6 137.91-28.98 138.74-28.98L138.74-28.98 146.65-28.98ZM165.51-28.98Q166.49-28.98 167.09-28.6 167.69-28.22 167.98-27.39L167.98-27.39 176.6-3.32 178.09-3.32Q178.92-3.32 179.27-2.94 179.63-2.56 179.63-1.66L179.63-1.66Q179.63-0.76 179.27-0.38 178.92 0 178.09 0L178.09 0 169.45 0Q168.62 0 168.26-0.38 167.91-0.76 167.91-1.66L167.91-1.66Q167.91-2.56 168.26-2.94 168.62-3.32 169.45-3.32L169.45-3.32 172.74-3.32 170.74-9.13 158.9-9.13 156.87-3.32 159.83-3.32Q160.66-3.32 161.01-2.94 161.36-2.56 161.36-1.66L161.36-1.66Q161.36-0.76 161.01-0.38 160.66 0 159.83 0L159.83 0 151.67 0Q150.84 0 150.49-0.38 150.13-0.76 150.13-1.66L150.13-1.66Q150.13-2.56 150.49-2.94 150.84-3.32 151.67-3.32L151.67-3.32 153.04-3.32 161.12-25.66 156.55-25.66Q155.72-25.66 155.37-26.04 155.02-26.42 155.02-27.32L155.02-27.32Q155.02-28.22 155.37-28.6 155.72-28.98 156.55-28.98L156.55-28.98 165.51-28.98ZM165.08-25.66L164.61-25.66 160.05-12.45 169.62-12.45 165.08-25.66ZM202.89-29.52Q203.89-29.52 204.31-29.15 204.72-28.78 204.72-27.93L204.72-27.93 204.72-22.31Q204.72-21.46 204.31-21.09 203.89-20.73 202.89-20.73L202.89-20.73Q201.96-20.73 201.62-21.36L201.62-21.36Q200.45-23.58 198.32-24.74 196.2-25.9 193.49-25.9L193.49-25.9Q190.81-25.9 189.33-24.66 187.85-23.41 187.85-21.31L187.85-21.31Q187.85-20.31 188.36-19.63 188.88-18.95 189.83-18.46L189.83-18.46Q190.68-18.02 191.83-17.74 192.98-17.46 194.91-17.09L194.91-17.09Q197.01-16.67 198.24-16.39 199.47-16.11 200.67-15.63L200.67-15.63Q203.11-14.62 204.49-12.83 205.87-11.04 205.87-7.98L205.87-7.98Q205.87-5.44 204.67-3.53 203.48-1.61 201.14-0.54 198.81 0.54 195.54 0.54L195.54 0.54Q193.1 0.54 191.01-0.35 188.93-1.25 187.39-2.95L187.39-2.95 187.39-1.05Q187.39-0.2 186.97 0.17 186.56 0.54 185.56 0.54L185.56 0.54Q184.56 0.54 184.14 0.17 183.73-0.2 183.73-1.05L183.73-1.05 183.73-8.37Q183.73-9.23 184.14-9.59 184.56-9.96 185.56-9.96L185.56-9.96Q186.61-9.96 186.97-8.94L186.97-8.94Q187.97-6.1 190.16-4.59 192.34-3.08 195.54-3.08L195.54-3.08Q198.67-3.08 200.34-4.42 202.01-5.76 202.01-7.98L202.01-7.98Q202.01-9.52 201.24-10.49 200.47-11.45 199.01-12.08L199.01-12.08Q198.08-12.5 196.98-12.76 195.88-13.01 193.98-13.4L193.98-13.4Q191.98-13.79 190.62-14.14 189.27-14.48 188.12-14.99L188.12-14.99Q186.17-15.87 185.08-17.37 183.99-18.87 183.99-21.31L183.99-21.31Q183.99-23.83 185.2-25.68 186.41-27.54 188.57-28.53 190.73-29.52 193.49-29.52L193.49-29.52Q195.64-29.52 197.64-28.69 199.64-27.86 201.06-26.44L201.06-26.44 201.06-27.93Q201.06-28.78 201.47-29.15 201.89-29.52 202.89-29.52L202.89-29.52ZM232.92-28.98Q233.75-28.98 234.1-28.6 234.46-28.22 234.46-27.32L234.46-27.32Q234.46-26.42 234.1-26.04 233.75-25.66 232.92-25.66L232.92-25.66 226.67-25.66 226.67-3.32 233.41-3.32Q234.24-3.32 234.59-2.94 234.94-2.56 234.94-1.66L234.94-1.66Q234.94-0.76 234.59-0.38 234.24 0 233.41 0L233.41 0 216.27 0Q215.44 0 215.08-0.38 214.73-0.76 214.73-1.66L214.73-1.66Q214.73-2.56 215.08-2.94 215.44-3.32 216.27-3.32L216.27-3.32 223-3.32 223-25.66 216.75-25.66Q215.92-25.66 215.57-26.04 215.22-26.42 215.22-27.32L215.22-27.32Q215.22-28.22 215.57-28.6 215.92-28.98 216.75-28.98L216.75-28.98 232.92-28.98Z" opacity="1" transform="matrix(1,0,0,1,0,0)" fill="#ffffff" class="wordmark-text-0" data-fill-palette-color="primary" id="text-0"></path></svg></g></svg></g><g transform="matrix(1,0,0,1,0,63.336877666714365)"><svg viewBox="0 0 111.8945630809797 31.666491702799405" height="31.666491702799405" width="111.8945630809797"><g transform="matrix(1,0,0,1,0,0)"><svg width="111.8945630809797" viewBox="4.85 -32.95 118.54 33.550000000000004" height="31.666491702799405" data-palette-color="#111111"><path d="M14.4 0L4.85 0 4.85-32.95 13.75-32.95Q18.75-32.95 21.7-31.03 24.65-29.1 24.65-24.95L24.65-24.95Q24.65-22.35 23.35-20.43 22.05-18.5 19.55-17.75L19.55-17.75 19.55-17.55Q22.75-17 24.7-15.03 26.65-13.05 26.65-9.6L26.65-9.6Q26.65-7.2 25.78-5.4 24.9-3.6 23.3-2.4 21.7-1.2 19.45-0.6 17.2 0 14.4 0L14.4 0ZM7.15-31.05L7.15-18.45 12.85-18.45Q17.9-18.45 20.13-20.13 22.35-21.8 22.35-24.7L22.35-24.7Q22.35-28.2 20-29.63 17.65-31.05 13.1-31.05L13.1-31.05 7.15-31.05ZM7.15-16.55L7.15-1.9 13.8-1.9Q18.75-1.9 21.58-3.75 24.4-5.6 24.4-9.55L24.4-9.55Q24.4-13.15 21.65-14.85 18.9-16.55 13.8-16.55L13.8-16.55 7.15-16.55ZM44.7 0.6L44.7 0.6Q42.6 0.6 40.6-0.03 38.6-0.65 37.05-2.18 35.5-3.7 34.57-6.25 33.65-8.8 33.65-12.65L33.65-12.65 33.65-32.95 35.95-32.95 35.95-12.9Q35.95-9.6 36.67-7.43 37.4-5.25 38.6-3.93 39.8-2.6 41.37-2.05 42.95-1.5 44.7-1.5L44.7-1.5Q46.5-1.5 48.12-2.05 49.75-2.6 50.97-3.93 52.2-5.25 52.95-7.43 53.7-9.6 53.7-12.9L53.7-12.9 53.7-32.95 55.85-32.95 55.85-12.65Q55.85-8.8 54.9-6.25 53.95-3.7 52.4-2.18 50.85-0.65 48.85-0.03 46.85 0.6 44.7 0.6ZM67.75 0L65.45 0 65.45-32.95 67.75-32.95 67.75 0ZM94.94 0L77.44 0 77.44-32.95 79.74-32.95 79.74-2 94.94-2 94.94 0ZM108.49 0L100.79 0 100.79-32.95 108.44-32.95Q112.24-32.95 115.06-31.8 117.89-30.65 119.74-28.5 121.59-26.35 122.49-23.35 123.39-20.35 123.39-16.6L123.39-16.6Q123.39-12.85 122.49-9.78 121.59-6.7 119.74-4.53 117.89-2.35 115.09-1.18 112.29 0 108.49 0L108.49 0ZM103.09-31L103.09-1.95 108.19-1.95Q111.54-1.95 113.97-3.03 116.39-4.1 117.94-6.05 119.49-8 120.24-10.68 120.99-13.35 120.99-16.6L120.99-16.6Q120.99-19.8 120.24-22.45 119.49-25.1 117.94-27 116.39-28.9 113.97-29.95 111.54-31 108.19-31L108.19-31 103.09-31Z" opacity="1" transform="matrix(1,0,0,1,0,0)" fill="#ffffff" class="slogan-text-1" data-fill-palette-color="secondary" id="text-1"></path></svg></g></svg></g></svg></g></svg></g><g transform="matrix(1,0,0,1,0,0.2375084234237761)"><svg viewBox="0 0 90.70066677076849 95.00336936951376" height="95.00336936951376" width="90.70066677076849"><g><svg version="1.0" xmlns="http://www.w3.org/2000/svg" xmlns:xlink="http://www.w3.org/1999/xlink" x="0" y="0" viewBox="0 0 95.471 100" enable-background="new 0 0 95.471 100" xml:space="preserve" id="icon-0" width="90.70066677076849" height="95.00336936951376" class="icon-icon-0" data-fill-palette-color="accent"><path d="M47.735 0C47.652 2.825 45.997 13.412 27.936 30.934 10.554 47.797 2.439 49.824 0 50 2.439 50.178 10.554 52.204 27.936 69.066 45.997 86.589 47.652 97.177 47.735 100 47.818 97.177 49.474 86.589 67.533 69.066 84.917 52.204 93.031 50.178 95.471 50 93.032 49.824 84.917 47.797 67.533 30.934 49.475 13.412 47.819 2.825 47.735 0" fill="#ffffff" data-fill-palette-color="accent"></path></svg></g></svg></g></svg></g><defs></defs></svg><rect width="395.52" height="73.32245062734826" fill="none" stroke="none" visibility="hidden"></rect></g></svg></g></svg>